<svg width="377" height="512" viewBox="0 0 377 512" fill="none" xmlns="http://www.w3.org/2000/svg">
<path d="M25.3796 512C8.27105 507.388 2.19822 500.787 0.404784 484.097C0.201319 437.725 0.100642 392.219 0 346.712C1.5425 341.15 2.04766 334.7 8.81393 332.732C12.4143 331.685 16.37 331.862 21.0706 331.441C69.0666 331.409 116.157 331.436 163.248 331.36C164.704 331.358 166.159 330.294 167.615 329.724C167.615 285.678 167.615 241.631 167.615 196.735C165.408 196.735 163.3 196.769 161.194 196.728C156.449 196.636 151.633 196.99 146.975 196.297C136.458 194.73 133.625 191.252 133.786 180.548C133.912 172.171 133.65 163.667 135.011 155.461C136.648 145.586 142.792 138.349 152.683 133.624C158.77 132.452 164.154 130.946 169.544 130.925C214.735 130.745 259.927 130.84 305.119 130.84C306.525 130.84 307.931 130.714 309.49 130.64C309.49 110.8 309.49 91.3139 309.49 71.7386C308.72 71.6072 308.205 71.4425 307.691 71.4425C254.083 71.4424 200.474 71.3307 146.867 71.5735C136.447 71.6207 126.259 73.9497 116.929 79.0426C92.6004 87.9149 72.1009 117.233 70.9806 142.9C69.5096 176.604 85.022 200.773 112.081 218.477C121.749 224.803 132.532 229.424 143.939 235.419C143.939 254.056 143.939 274.645 143.939 296.306C134.192 294.36 124.545 293.206 115.379 290.453C92.9504 283.717 72.2947 273.313 54.3794 257.971C25.5432 233.276 9.3164 202.415 5.9093 164.157C2.60867 127.095 11.2526 93.5897 32.3 63.4862C56.837 28.3915 91.0543 8.20721 133.376 2.22521C144.381 0.669678 155.617 0.217789 166.75 0.180923C226.98 -0.0186723 287.213 0.156904 347.444 0.000113519C362.072 -0.0379599 377.19 9.50056 376.998 29.4744C376.555 75.6325 376.881 121.798 376.809 167.96C376.779 186.835 366.435 196.808 347.327 196.785C310.896 196.74 274.464 196.736 238.032 196.716C236.419 196.715 234.806 196.716 232.889 196.716C232.889 206.334 232.889 215.6 232.889 224.946C241.424 226.911 250.178 228.495 258.678 230.957C296.408 241.884 328.753 261.022 351.933 293.629C366.233 313.744 372.635 336.512 374.002 360.942C376.44 404.486 362.763 442.125 331.719 472.711C309.758 494.349 282.128 505.096 252.062 509.963C247.203 510.749 242.248 510.945 236.437 511.542C165.483 511.78 95.4315 511.89 25.3796 512ZM66.6218 447.495C101.131 447.502 135.639 447.545 170.148 447.502C189.131 447.478 208.114 447.309 228.054 447.364C233.852 446.629 239.737 446.3 245.433 445.086C269.411 439.975 289.207 428.059 301.445 406.428C316.925 379.065 312.523 347.394 291.291 324.065C275.435 306.643 255.624 296.113 232.603 289.998C232.603 292.569 232.604 294.569 232.602 296.568C232.587 317.449 232.826 338.335 232.46 359.21C232.233 372.17 227.981 383.695 215.188 389.224C209.7 391.596 203.165 392.395 197.096 392.433C154.994 392.697 112.889 392.572 70.7848 392.572C68.8583 392.572 66.9317 392.572 64.7233 392.572C64.7233 410.953 64.7176 428.516 64.7607 446.079C64.7616 446.46 65.321 446.839 66.6218 447.495Z" fill="black"/>
</svg>
